<svg width="128" height="32" viewBox="0 0 128 32" fill="none" xmlns="http://www.w3.org/2000/svg">
<g clip-path="url(#clip0_71_120)">
<path d="M31.797 8.67659V25.0051C31.797 28.8629 28.6619 31.993 24.7979 31.993H7.00625C3.13512 31.993 0 28.8629 0 24.9981V9.17825C0 8.95922 0.283081 8.87443 0.410467 9.05107L2.25757 11.8066L8.61273 21.4582C9.10812 22.2142 9.93613 22.7371 10.842 22.7512C11.8328 22.7724 12.7245 22.2637 13.2128 21.4158L14.9891 18.2787C15.067 18.1374 15.2722 18.1445 15.35 18.2858L18.0605 23.5991C18.5064 24.4682 19.391 25.0193 20.3606 25.0405H20.4243C21.3797 25.0405 22.2572 24.5317 22.7314 23.7051L29.2352 12.28L31.3795 8.57061C31.4927 8.37277 31.797 8.45756 31.797 8.68366V8.67659Z" fill="url(#paint0_linear_71_120)"/>
<path d="M29.6244 8.25966L21.3018 22.8995C21.1108 23.2246 20.764 23.4295 20.396 23.4083C20.0138 23.3941 19.6883 23.1892 19.5184 22.8501L16.0365 16.0389C15.8808 15.728 15.5765 15.5372 15.2227 15.5301H15.2014C14.8617 15.5301 14.5645 15.7068 14.3947 16.0035L11.7762 20.6103C11.6063 20.9212 11.2879 21.1119 10.934 21.119C10.5802 21.1402 10.2475 20.9636 10.0494 20.6668L2.18681 8.71892C1.53573 7.56723 1.40126 6.21771 1.81173 4.81872C2.32128 3.07353 3.58098 1.52616 5.18039 0.67123C5.95886 0.261426 6.75856 0.0353279 7.56534 0H8.77551C9.30629 0.0282623 10.1414 0.12718 11.118 0.423935C12.4485 0.826672 13.7511 1.49202 15.0545 2.33164C15.5004 2.68492 16.1231 2.72025 16.6115 2.43056C17.6447 1.80172 18.9876 0.939722 20.7711 0.423935C21.6557 0.162508 22.5049 0.0211967 23.2763 0H24.1114C25.0031 0.0141312 25.909 0.254361 26.7299 0.706558C29.2847 2.09141 31.054 5.45462 29.6244 8.25966Z" fill="white"/>
</g>
<path d="M42.01 15.7717V13.4332H46.1107C47.0164 13.4332 47.6705 13.2511 48.073 12.8868C48.4839 12.5153 48.6893 11.9798 48.6893 11.2805V10.4828C48.6893 9.76883 48.4881 9.23337 48.0856 8.8764C47.683 8.51215 47.0289 8.33002 46.1233 8.33002H42.01V6.00244H46.3119C48.2658 6.00244 49.6956 6.38491 50.6013 7.14984C51.5154 7.91477 51.9724 9.00025 51.9724 10.4063V11.3679C51.9724 12.7739 51.5154 13.8594 50.6013 14.6243C49.6956 15.3893 48.2658 15.7717 46.3119 15.7717H42.01ZM39.8087 19.9679V6.00244H43.054V14.0998L43.0666 15.4002V19.9679H39.8087Z" fill="white"/>
<path d="M57.3455 13.7392L56.5279 11.8706H57.3078C57.5342 11.0036 57.9451 10.3225 58.5405 9.82711C59.1359 9.33172 59.9619 9.08403 61.0185 9.08403C61.2365 9.08403 61.4336 9.0986 61.6097 9.12774C61.7858 9.14959 61.9451 9.17874 62.0877 9.21516L62.2638 12.0126C62.0793 11.9616 61.8655 11.9252 61.6223 11.9034C61.3791 11.8742 61.1233 11.8596 60.855 11.8596C59.9996 11.8596 59.2701 12.0236 58.6663 12.3514C58.0709 12.6792 57.6306 13.1418 57.3455 13.7392ZM54.2134 19.9679V9.24794H57.2826L57.1442 12.5372L57.4336 12.6355V19.9679H54.2134Z" fill="white"/>
<path d="M69.1043 20.263C67.1923 20.263 65.7416 19.8368 64.752 18.9844C63.7709 18.1321 63.2803 16.9191 63.2803 15.3456V13.8922C63.2803 12.3113 63.7709 11.0947 64.752 10.2424C65.7416 9.38272 67.1923 8.9529 69.1043 8.9529C71.0079 8.9529 72.4503 9.38272 73.4314 10.2424C74.4125 11.0947 74.9031 12.3113 74.9031 13.8922V15.3456C74.9031 16.9191 74.4125 18.1321 73.4314 18.9844C72.4586 19.8368 71.0163 20.263 69.1043 20.263ZM69.1043 18.0228C69.9429 18.0228 70.5802 17.8043 71.0163 17.3672C71.4607 16.9301 71.683 16.3035 71.683 15.4876V13.7501C71.683 12.9196 71.4607 12.2858 71.0163 11.8487C70.5802 11.4043 69.9429 11.1821 69.1043 11.1821C68.2573 11.1821 67.6116 11.4043 67.1672 11.8487C66.7311 12.2858 66.5131 12.9196 66.5131 13.7501V15.4876C66.5131 16.3035 66.7311 16.9301 67.1672 17.3672C67.6116 17.8043 68.2573 18.0228 69.1043 18.0228Z" fill="white"/>
<path d="M79.7241 19.9679V17.5639H83.372C84.5208 17.5639 85.3804 17.2943 85.9506 16.7552C86.5293 16.2088 86.8186 15.4293 86.8186 14.4167V11.5209C86.8186 10.5083 86.5293 9.7324 85.9506 9.1933C85.3804 8.65421 84.5208 8.38466 83.372 8.38466H79.7116V6.00244H83.4852C85.6991 6.00244 87.3636 6.47597 88.479 7.42303C89.5943 8.37009 90.1519 9.7324 90.1519 11.51V14.4276C90.1519 16.2125 89.5943 17.5821 88.479 18.5364C87.372 19.4908 85.7074 19.9679 83.4852 19.9679H79.7241ZM77.4222 19.9679V6.00244H80.6801V19.9679H77.4222Z" fill="white"/>
<path d="M98.4119 20.2302C96.2986 20.2302 94.7263 19.8077 93.6948 18.9626C92.6634 18.1175 92.1476 16.8936 92.1476 15.2909V13.8922C92.1476 12.304 92.6298 11.0838 93.5942 10.2314C94.5586 9.37907 95.959 8.9529 97.7955 8.9529C99.0366 8.9529 100.072 9.14231 100.902 9.52113C101.733 9.89996 102.353 10.4391 102.764 11.1384C103.183 11.8305 103.393 12.661 103.393 13.6299V14.0124C103.393 14.2746 103.376 14.5442 103.343 14.821C103.318 15.0906 103.28 15.3456 103.23 15.586H100.311C100.336 15.1853 100.349 14.8065 100.349 14.4495C100.357 14.0852 100.362 13.7574 100.362 13.466C100.362 12.9633 100.269 12.5372 100.085 12.1875C99.9004 11.8305 99.6194 11.561 99.2421 11.3788C98.8647 11.1967 98.3825 11.1056 97.7955 11.1056C96.9318 11.1056 96.2944 11.3133 95.8835 11.7285C95.4726 12.1438 95.2672 12.7339 95.2672 13.4988V14.4932L95.2798 14.8101V15.6515C95.2798 15.9866 95.3385 16.2963 95.4559 16.5804C95.5816 16.8645 95.7871 17.1122 96.0722 17.3234C96.3573 17.5274 96.7347 17.6877 97.2043 17.8043C97.6823 17.9208 98.2777 17.9791 98.9905 17.9791C99.762 17.9791 100.496 17.9063 101.192 17.7606C101.896 17.6076 102.563 17.4036 103.192 17.1486L102.915 19.356C102.353 19.6255 101.691 19.8368 100.928 19.9898C100.173 20.1501 99.3343 20.2302 98.4119 20.2302ZM93.8584 15.586V13.7283H102.575V15.586H93.8584Z" fill="white"/>
<path d="M113.696 19.9679V13.5316C113.696 13.0799 113.625 12.6901 113.483 12.3623C113.348 12.0345 113.122 11.7795 112.803 11.5974C112.485 11.4153 112.049 11.3242 111.495 11.3242C111.009 11.3242 110.581 11.4007 110.212 11.5537C109.852 11.7067 109.554 11.9143 109.319 12.1765C109.093 12.4315 108.921 12.7229 108.803 13.0508L108.3 11.5209H108.904C109.038 11.0474 109.26 10.6212 109.571 10.2424C109.889 9.86353 110.317 9.56484 110.854 9.34629C111.399 9.12045 112.078 9.00754 112.891 9.00754C113.839 9.00754 114.606 9.16416 115.193 9.47742C115.78 9.7834 116.212 10.2424 116.489 10.8543C116.774 11.4662 116.917 12.2239 116.917 13.1272V19.9679H113.696ZM105.659 19.9679V9.24794H108.879L108.753 11.8596L108.879 12.0891V19.9679H105.659Z" fill="white"/>
<path d="M124.344 20.1974C123.296 20.1974 122.457 20.0626 121.828 19.7931C121.208 19.5163 120.759 19.101 120.482 18.5473C120.206 17.9937 120.067 17.3125 120.067 16.5039V10.2533H123.262V16.0886C123.262 16.6714 123.413 17.1013 123.715 17.3781C124.025 17.6476 124.566 17.7824 125.338 17.7824C125.791 17.7824 126.227 17.7423 126.646 17.6622C127.065 17.5748 127.451 17.4619 127.803 17.3234L127.526 19.662C127.107 19.8295 126.625 19.9606 126.08 20.0554C125.543 20.1501 124.965 20.1974 124.344 20.1974ZM118.281 11.5427V9.33536H127.69L127.413 11.5427H118.281ZM120.105 9.54299L120.092 6.70181L123.3 6.41769L123.174 9.54299H120.105Z" fill="white"/>
<path d="M39.8088 29.9291V24.0215H40.5762V29.9291H39.8088ZM40.2434 27.456V26.8135H43.2896V27.456H40.2434ZM40.0307 24.664V24.0215H43.359V24.664H40.0307Z" fill="white"/>
<path d="M44.3394 29.9291V25.4175H45.0882V29.9291H44.3394ZM44.7138 24.6779C44.5597 24.6779 44.4442 24.6378 44.3671 24.5577C44.2932 24.4745 44.2562 24.362 44.2562 24.2202V24.1971C44.2562 24.0523 44.2932 23.9398 44.3671 23.8597C44.4442 23.7796 44.5597 23.7395 44.7138 23.7395C44.8679 23.7395 44.9835 23.7796 45.0605 23.8597C45.1375 23.9398 45.1761 24.0523 45.1761 24.1971V24.2202C45.1761 24.3651 45.1375 24.4776 45.0605 24.5577C44.9835 24.6378 44.8679 24.6779 44.7138 24.6779Z" fill="white"/>
<path d="M49.3484 29.9291V27.1232C49.3484 26.8798 49.3145 26.6702 49.2467 26.4945C49.1819 26.3189 49.0741 26.1833 48.9231 26.0878C48.7752 25.9891 48.5718 25.9398 48.3129 25.9398C48.0756 25.9398 47.8691 25.9845 47.6935 26.0739C47.5209 26.1633 47.3807 26.285 47.2728 26.4391C47.165 26.5901 47.0895 26.7627 47.0463 26.9568L46.9123 26.4252H47.0741C47.1234 26.2218 47.2096 26.0369 47.3329 25.8705C47.4562 25.701 47.6211 25.567 47.8275 25.4683C48.0371 25.3666 48.2929 25.3158 48.5949 25.3158C48.9524 25.3158 49.2405 25.3836 49.4593 25.5192C49.6812 25.6548 49.843 25.8505 49.9447 26.1063C50.0464 26.359 50.0972 26.6702 50.0972 27.04V29.9291H49.3484ZM46.3298 29.9291V25.4175H47.0787L47.0463 26.4992L47.0787 26.5408V29.9291H46.3298Z" fill="white"/>
<path d="M53.9358 29.9291L53.9682 28.8336L53.9404 28.718V27.2804L53.9451 27.0169C53.9451 26.6502 53.8511 26.379 53.6631 26.2033C53.4782 26.0277 53.1839 25.9398 52.7802 25.9398C52.4566 25.9398 52.1592 25.9861 51.888 26.0785C51.6199 26.171 51.3811 26.2788 51.1715 26.4021L51.2409 25.7642C51.358 25.6933 51.4966 25.624 51.6569 25.5562C51.8202 25.4853 52.0051 25.4267 52.2116 25.3805C52.4212 25.3343 52.6507 25.3112 52.9004 25.3112C53.2239 25.3112 53.4982 25.3512 53.7232 25.4314C53.9512 25.5084 54.1346 25.6209 54.2733 25.7688C54.415 25.9167 54.5183 26.0955 54.583 26.305C54.6477 26.5146 54.68 26.7488 54.68 27.0077V29.9291H53.9358ZM52.3826 30.0262C51.9358 30.0262 51.5922 29.9183 51.3518 29.7026C51.1145 29.4838 50.9959 29.1725 50.9959 28.7688V28.6348C50.9959 28.2188 51.1238 27.909 51.3795 27.7057C51.6384 27.4992 52.0483 27.3559 52.6091 27.2758L54.0375 27.0724L54.0791 27.6178L52.7016 27.8166C52.3564 27.8659 52.1099 27.9507 51.962 28.0708C51.8141 28.1879 51.7401 28.3621 51.7401 28.5932V28.6671C51.7401 28.9044 51.8125 29.0863 51.9574 29.2126C52.1053 29.339 52.3256 29.4021 52.6184 29.4021C52.8772 29.4021 53.0991 29.3575 53.284 29.2681C53.4689 29.1787 53.6184 29.0585 53.7324 28.9075C53.8464 28.7565 53.9235 28.5886 53.9635 28.4037L54.0791 28.9121H53.9358C53.8927 29.1094 53.811 29.2927 53.6908 29.4622C53.5737 29.6317 53.4088 29.7689 53.1962 29.8736C52.9836 29.9753 52.7124 30.0262 52.3826 30.0262Z" fill="white"/>
<path d="M58.8463 29.9291V27.1232C58.8463 26.8798 58.8124 26.6702 58.7446 26.4945C58.6799 26.3189 58.572 26.1833 58.421 26.0878C58.2731 25.9891 58.0697 25.9398 57.8108 25.9398C57.5735 25.9398 57.367 25.9845 57.1914 26.0739C57.0188 26.1633 56.8786 26.285 56.7707 26.4391C56.6629 26.5901 56.5874 26.7627 56.5442 26.9568L56.4102 26.4252H56.572C56.6213 26.2218 56.7076 26.0369 56.8308 25.8705C56.9541 25.701 57.119 25.567 57.3254 25.4683C57.535 25.3666 57.7908 25.3158 58.0928 25.3158C58.4503 25.3158 58.7384 25.3836 58.9572 25.5192C59.1791 25.6548 59.3409 25.8505 59.4426 26.1063C59.5443 26.359 59.5951 26.6702 59.5951 27.04V29.9291H58.8463ZM55.8277 29.9291V25.4175H56.5766L56.5442 26.4992L56.5766 26.5408V29.9291H55.8277Z" fill="white"/>
<path d="M62.4953 30.0308C61.8482 30.0308 61.3659 29.8567 61.0485 29.5085C60.7341 29.1571 60.577 28.661 60.577 28.02V27.3174C60.577 26.6733 60.7357 26.1787 61.0531 25.8335C61.3705 25.4853 61.8513 25.3112 62.4953 25.3112C62.6864 25.3112 62.8605 25.3297 63.0177 25.3666C63.1749 25.4005 63.3151 25.4468 63.4383 25.5053C63.5647 25.5608 63.671 25.6193 63.7573 25.681L63.822 26.3328C63.6772 26.2218 63.5046 26.1278 63.3043 26.0508C63.1071 25.9737 62.8744 25.9352 62.6063 25.9352C62.1748 25.9352 61.8528 26.0554 61.6402 26.2958C61.4306 26.5331 61.3258 26.8798 61.3258 27.3359V28.0015C61.3258 28.4483 61.4306 28.792 61.6402 29.0323C61.8528 29.2727 62.1748 29.3929 62.6063 29.3929C62.8836 29.3929 63.1225 29.3544 63.3228 29.2773C63.5262 29.2003 63.7064 29.1063 63.8636 28.9953L63.7943 29.6564C63.6587 29.7488 63.4815 29.8351 63.2627 29.9152C63.0439 29.9923 62.7881 30.0308 62.4953 30.0308Z" fill="white"/>
<path d="M64.7798 29.9291V25.4175H65.5286V29.9291H64.7798ZM65.1542 24.6779C65.0001 24.6779 64.8845 24.6378 64.8075 24.5577C64.7335 24.4745 64.6965 24.362 64.6965 24.2202V24.1971C64.6965 24.0523 64.7335 23.9398 64.8075 23.8597C64.8845 23.7796 65.0001 23.7395 65.1542 23.7395C65.3083 23.7395 65.4238 23.7796 65.5009 23.8597C65.5779 23.9398 65.6164 24.0523 65.6164 24.1971V24.2202C65.6164 24.3651 65.5779 24.4776 65.5009 24.5577C65.4238 24.6378 65.3083 24.6779 65.1542 24.6779Z" fill="white"/>
<path d="M69.4467 29.9291L69.479 28.8336L69.4513 28.718V27.2804L69.4559 27.0169C69.4559 26.6502 69.3619 26.379 69.1739 26.2033C68.989 26.0277 68.6947 25.9398 68.291 25.9398C67.9674 25.9398 67.6701 25.9861 67.3989 26.0785C67.1308 26.171 66.8919 26.2788 66.6824 26.4021L66.7517 25.7642C66.8688 25.6933 67.0075 25.624 67.1677 25.5562C67.3311 25.4853 67.516 25.4267 67.7224 25.3805C67.932 25.3343 68.1616 25.3112 68.4112 25.3112C68.7348 25.3112 69.0091 25.3512 69.234 25.4314C69.4621 25.5084 69.6454 25.6209 69.7841 25.7688C69.9259 25.9167 70.0291 26.0955 70.0938 26.305C70.1585 26.5146 70.1909 26.7488 70.1909 27.0077V29.9291H69.4467ZM67.8935 30.0262C67.4466 30.0262 67.103 29.9183 66.8626 29.7026C66.6254 29.4838 66.5067 29.1725 66.5067 28.7688V28.6348C66.5067 28.2188 66.6346 27.909 66.8904 27.7057C67.1492 27.4992 67.5591 27.3559 68.12 27.2758L69.5484 27.0724L69.59 27.6178L68.2124 27.8166C67.8673 27.8659 67.6207 27.9507 67.4728 28.0708C67.3249 28.1879 67.2509 28.3621 67.2509 28.5932V28.6671C67.2509 28.9044 67.3234 29.0863 67.4682 29.2126C67.6161 29.339 67.8365 29.4021 68.1292 29.4021C68.3881 29.4021 68.61 29.3575 68.7949 29.2681C68.9798 29.1787 69.1292 29.0585 69.2433 28.9075C69.3573 28.7565 69.4343 28.5886 69.4744 28.4037L69.59 28.9121H69.4467C69.4035 29.1094 69.3218 29.2927 69.2017 29.4622C69.0846 29.6317 68.9197 29.7689 68.707 29.8736C68.4944 29.9753 68.2232 30.0262 67.8935 30.0262Z" fill="white"/>
<path d="M71.3617 29.9291V23.8042H72.1059V29.9291H71.3617Z" fill="white"/>
<path d="M76.5121 27.9645V27.3266H78.1901C78.5938 27.3266 78.8865 27.2265 79.0684 27.0261C79.2502 26.8227 79.3411 26.5439 79.3411 26.1895V25.7873C79.3411 25.4267 79.2502 25.1478 79.0684 24.9506C78.8896 24.7534 78.5999 24.6548 78.1993 24.6548H76.5075V24.0215H78.2132C78.8727 24.0215 79.3519 24.1771 79.6508 24.4884C79.9528 24.7965 80.1038 25.2218 80.1038 25.7642V26.2079C80.1038 26.7565 79.9513 27.1864 79.6462 27.4976C79.3442 27.8089 78.865 27.9645 78.2086 27.9645H76.5121ZM76.0129 29.9291V24.0215H76.7663V27.5161L76.771 27.8582V29.9291H76.0129Z" fill="white"/>
<path d="M83.6574 29.9291L83.6898 28.8336L83.662 28.718V27.2804L83.6667 27.0169C83.6667 26.6502 83.5727 26.379 83.3847 26.2033C83.1998 26.0277 82.9055 25.9398 82.5018 25.9398C82.1782 25.9398 81.8808 25.9861 81.6096 26.0785C81.3415 26.171 81.1027 26.2788 80.8931 26.4021L80.9625 25.7642C81.0796 25.6933 81.2182 25.624 81.3785 25.5562C81.5418 25.4853 81.7267 25.4267 81.9332 25.3805C82.1428 25.3343 82.3723 25.3112 82.622 25.3112C82.9455 25.3112 83.2198 25.3512 83.4448 25.4314C83.6728 25.5084 83.8562 25.6209 83.9949 25.7688C84.1366 25.9167 84.2399 26.0955 84.3046 26.305C84.3693 26.5146 84.4016 26.7488 84.4016 27.0077V29.9291H83.6574ZM82.1042 30.0262C81.6574 30.0262 81.3138 29.9183 81.0734 29.7026C80.8361 29.4838 80.7175 29.1725 80.7175 28.7688V28.6348C80.7175 28.2188 80.8454 27.909 81.1011 27.7057C81.36 27.4992 81.7699 27.3559 82.3307 27.2758L83.7591 27.0724L83.8007 27.6178L82.4232 27.8166C82.078 27.8659 81.8315 27.9507 81.6836 28.0708C81.5357 28.1879 81.4617 28.3621 81.4617 28.5932V28.6671C81.4617 28.9044 81.5341 29.0863 81.679 29.2126C81.8269 29.339 82.0472 29.4021 82.34 29.4021C82.5988 29.4021 82.8207 29.3575 83.0056 29.2681C83.1905 29.1787 83.34 29.0585 83.454 28.9075C83.568 28.7565 83.6451 28.5886 83.6851 28.4037L83.8007 28.9121H83.6574C83.6143 29.1094 83.5326 29.2927 83.4124 29.4622C83.2953 29.6317 83.1304 29.7689 82.9178 29.8736C82.7052 29.9753 82.434 30.0262 82.1042 30.0262Z" fill="white"/>
<path d="M86.2612 27.1694L86.0902 26.5916L86.2751 26.5824C86.3737 26.2002 86.5432 25.8998 86.7836 25.681C87.0239 25.4591 87.3429 25.3482 87.7404 25.3482C87.839 25.3482 87.9269 25.3559 88.0039 25.3713C88.084 25.3867 88.1549 25.4052 88.2166 25.4267L88.2628 26.1525C88.1857 26.1278 88.0994 26.1078 88.0039 26.0924C87.9115 26.077 87.8082 26.0693 87.6942 26.0693C87.3552 26.0693 87.0594 26.1633 86.8067 26.3512C86.5571 26.5392 86.3752 26.812 86.2612 27.1694ZM85.5493 29.9291V25.4175H86.2797L86.2427 26.7488L86.2982 26.8043V29.9291H85.5493Z" fill="white"/>
<path d="M90.8017 30.0216C90.4535 30.0216 90.173 29.9692 89.9604 29.8644C89.7478 29.7596 89.5937 29.6009 89.4982 29.3883C89.4026 29.1756 89.3549 28.9106 89.3549 28.5932V25.7457H90.0945V28.5054C90.0945 28.8012 90.1623 29.02 90.2979 29.1618C90.4335 29.3004 90.6615 29.3698 90.982 29.3698C91.1638 29.3698 91.3379 29.3497 91.5043 29.3097C91.6738 29.2696 91.8325 29.2126 91.9805 29.1387L91.9111 29.7812C91.7663 29.8551 91.5968 29.9137 91.4026 29.9568C91.2085 30 91.0082 30.0216 90.8017 30.0216ZM88.6152 26.0831V25.4822H91.9342L91.8649 26.0831H88.6152ZM89.3595 25.5562L89.3549 24.2896L90.1083 24.1925L90.076 25.5562H89.3595Z" fill="white"/>
<path d="M95.8358 29.9291V27.1232C95.8358 26.8798 95.8019 26.6702 95.7341 26.4945C95.6693 26.3189 95.5615 26.1833 95.4105 26.0878C95.2626 25.9891 95.0592 25.9398 94.8003 25.9398C94.563 25.9398 94.3565 25.9845 94.1809 26.0739C94.0083 26.1633 93.8681 26.285 93.7602 26.4391C93.6524 26.5901 93.5769 26.7627 93.5337 26.9568L93.3997 26.4252H93.5615C93.6108 26.2218 93.6971 26.0369 93.8203 25.8705C93.9436 25.701 94.1085 25.567 94.3149 25.4683C94.5245 25.3666 94.7803 25.3158 95.0823 25.3158C95.4398 25.3158 95.7279 25.3836 95.9467 25.5192C96.1686 25.6548 96.3304 25.8505 96.4321 26.1063C96.5338 26.359 96.5846 26.6702 96.5846 27.04V29.9291H95.8358ZM92.8172 29.9291V25.4175H93.5661L93.5337 26.4992L93.5661 26.5408V29.9291H92.8172Z" fill="white"/>
<path d="M99.642 30.0308C98.9548 30.0308 98.437 29.8628 98.0888 29.5269C97.7406 29.191 97.5665 28.7103 97.5665 28.0847V27.2804C97.5665 26.6456 97.7283 26.1571 98.0518 25.815C98.3754 25.4699 98.8485 25.2973 99.471 25.2973C99.8901 25.2973 100.24 25.3759 100.52 25.5331C100.801 25.6871 101.012 25.9075 101.154 26.1941C101.295 26.4807 101.366 26.8227 101.366 27.2203V27.3867C101.366 27.4853 101.362 27.5839 101.352 27.6825C101.346 27.7812 101.337 27.8782 101.325 27.9738H100.636C100.642 27.8258 100.645 27.6856 100.645 27.5531C100.648 27.4206 100.65 27.2989 100.65 27.1879C100.65 26.9137 100.605 26.6825 100.516 26.4945C100.429 26.3035 100.298 26.1586 100.123 26.06C99.9502 25.9583 99.7329 25.9075 99.471 25.9075C99.0827 25.9075 98.7914 26.02 98.5973 26.2449C98.4032 26.4699 98.3061 26.7919 98.3061 27.211V27.6409L98.3107 27.7334V28.1633C98.3107 28.3513 98.3384 28.5208 98.3939 28.6718C98.4494 28.8228 98.5357 28.9537 98.6528 29.0647C98.773 29.1725 98.924 29.2558 99.1058 29.3143C99.2907 29.3698 99.5095 29.3975 99.7622 29.3975C100.055 29.3975 100.328 29.359 100.58 29.2819C100.833 29.2049 101.07 29.1001 101.292 28.9676L101.223 29.6148C101.023 29.7411 100.79 29.8428 100.525 29.9199C100.26 29.9938 99.9656 30.0308 99.642 30.0308ZM97.9594 27.9738V27.4098H101.167V27.9738H97.9594Z" fill="white"/>
<path d="M103.072 27.1694L102.901 26.5916L103.086 26.5824C103.185 26.2002 103.354 25.8998 103.595 25.681C103.835 25.4591 104.154 25.3482 104.551 25.3482C104.65 25.3482 104.738 25.3559 104.815 25.3713C104.895 25.3867 104.966 25.4052 105.027 25.4267L105.074 26.1525C104.997 26.1278 104.91 26.1078 104.815 26.0924C104.722 26.077 104.619 26.0693 104.505 26.0693C104.166 26.0693 103.87 26.1633 103.618 26.3512C103.368 26.5392 103.186 26.812 103.072 27.1694ZM102.36 29.9291V25.4175H103.091L103.054 26.7488L103.109 26.8043V29.9291H102.36Z" fill="white"/>
<path d="M107.264 30.0308C106.901 30.0308 106.583 29.9923 106.312 29.9152C106.041 29.8351 105.816 29.7488 105.637 29.6564L105.568 28.963C105.793 29.0801 106.039 29.1818 106.307 29.2681C106.578 29.3544 106.885 29.3975 107.227 29.3975C107.575 29.3975 107.837 29.342 108.013 29.2311C108.189 29.1202 108.277 28.9553 108.277 28.7365V28.6856C108.277 28.5439 108.243 28.4268 108.175 28.3343C108.11 28.2419 107.991 28.1602 107.819 28.0893C107.646 28.0184 107.401 27.9476 107.084 27.8767C106.705 27.7935 106.406 27.6964 106.187 27.5855C105.968 27.4714 105.811 27.3312 105.716 27.1648C105.623 26.9984 105.577 26.795 105.577 26.5546V26.513C105.577 26.1186 105.714 25.8197 105.988 25.6163C106.263 25.4129 106.676 25.3112 107.227 25.3112C107.582 25.3112 107.888 25.3512 108.147 25.4314C108.409 25.5115 108.623 25.6009 108.79 25.6995L108.859 26.3328C108.659 26.2157 108.429 26.1186 108.17 26.0415C107.911 25.9645 107.62 25.926 107.297 25.926C107.062 25.926 106.873 25.9506 106.728 25.9999C106.583 26.0462 106.478 26.114 106.414 26.2033C106.349 26.2896 106.317 26.3944 106.317 26.5177V26.5546C106.317 26.6902 106.349 26.8058 106.414 26.9013C106.478 26.9938 106.594 27.0754 106.76 27.1463C106.93 27.2141 107.164 27.2804 107.463 27.3451C107.848 27.4221 108.153 27.5146 108.378 27.6225C108.606 27.7303 108.77 27.8674 108.868 28.0339C108.967 28.1972 109.016 28.4083 109.016 28.6671V28.7457C109.016 29.171 108.868 29.4915 108.572 29.7072C108.277 29.9229 107.84 30.0308 107.264 30.0308Z" fill="white"/>
<defs>
<linearGradient id="paint0_linear_71_120" x1="1.2319" y1="35.1338" x2="26.1743" y2="-6.93644" gradientUnits="userSpaceOnUse">
<stop stop-color="#8639F8"/>
<stop offset="0.240531" stop-color="#8F3CF4"/>
<stop offset="0.449857" stop-color="#A947EB"/>
<stop offset="0.65" stop-color="#D359DD"/>
<stop offset="0.87" stop-color="#F768D1"/>
</linearGradient>
<clipPath id="clip0_71_120">
<rect width="31.797" height="32" fill="white"/>
</clipPath>
</defs>
</svg>
